<svg xmlns="http://www.w3.org/2000/svg" height="512" viewBox="-13 1 511 511.999" width="512"><g fill-rule="evenodd" fill="#715aff"><path d="M171.945 283.605c0-35.171-28.613-63.789-63.789-63.789-35.172 0-63.785 28.618-63.785 63.79s28.613 63.789 63.785 63.789c35.176 0 63.79-28.618 63.79-63.79zm-107.574 0c0-24.144 19.64-43.789 43.785-43.789s43.79 19.645 43.79 43.79-19.645 43.789-43.79 43.789-43.785-19.645-43.785-43.79zm0 0"/><path d="M483.617 83.629l-20.762-33.957 21.07-34.453A10 10 0 1 0 475.395 0h-83.921c-5.524 0-10 4.477-10 10v115.277h-57.778c-27.953 0-50.691 22.739-50.691 50.692v101.976c0 27.953 22.738 50.692 50.691 50.692h93.465c16.922 0 30.688 13.77 30.688 30.691v101.98c0 16.922-13.766 30.688-30.688 30.688H124.328l82.219-164.676a6.46 6.46 0 0 0 .207-.441c6.016-13.684 9.062-28.242 9.062-43.274 0-59.363-48.293-107.66-107.656-107.66C48.797 175.945.5 224.242.5 283.605c0 15.036 3.047 29.594 9.059 43.274.066.148.136.297.207.441l26.851 53.782c2.469 4.937 8.477 6.945 13.414 4.48 4.942-2.469 6.95-8.473 4.48-13.414l-26.734-53.555C22.95 307.547 20.5 295.77 20.5 283.602c0-48.332 39.324-87.657 87.66-87.657 48.332 0 87.656 39.325 87.656 87.657 0 12.168-2.445 23.945-7.273 35.007l-80.383 161-17.906-35.855c-2.469-4.942-8.473-6.953-13.414-4.48-4.938 2.464-6.945 8.472-4.477 13.413l26.848 53.778c.016.031.039.058.055.094.195.375.406.738.644 1.086.031.046.067.09.102.136.207.29.43.57.668.836a9.879 9.879 0 0 0 1.086 1.066c.011.008.02.02.027.028a10.092 10.092 0 0 0 1.254.867c.305.188.621.356.95.504.054.023.105.05.155.074.383.168.778.313 1.188.434.07.02.14.031.21.055.337.09.677.16 1.024.214a8.876 8.876 0 0 0 1.586.141h309c27.95 0 50.688-22.738 50.688-50.691v-101.98c0-27.95-22.739-50.688-50.688-50.688h-93.465c-16.922 0-30.691-13.77-30.691-30.692V175.97c0-16.922 13.77-30.692 30.691-30.692h57.778v24.586c0 5.524 4.48 10 10 10 5.523 0 10-4.476 10-10V99.348h73.942c5.522 0 10-4.48 10-10a9.943 9.943 0 0 0-1.798-5.72zm-82.144-4.281V20h56.086l-14.954 24.457a10.005 10.005 0 0 0 0 10.434l14.954 24.457zm0 0"/><path d="M63.438 402.43c-5.508 0-10.004 4.492-10.004 10 0 5.507 4.496 10 10.004 10s10-4.493 10-10c0-5.508-4.493-10-10-10zm0 0"/></g></svg>