<svg xmlns="http://www.w3.org/2000/svg" width="512" height="512"><path d="M500.71 446.149l-92.7-92.7c2.548-3.879 2.118-9.141-1.293-12.552-3.41-3.41-8.674-3.841-12.552-1.293l-24.737-24.737c18.489-27.447 30.128-59.238 33.495-92.395 4.611-45.412-6.37-91.445-30.92-129.622-2.987-4.645-9.174-5.988-13.818-3.002-4.644 2.987-5.988 9.174-3.002 13.818 45.911 71.392 35.6 166.844-24.517 226.961-70.95 70.95-186.394 70.95-257.345 0-70.95-70.949-70.95-186.393 0-257.344 60.181-60.181 152.594-70.842 224.73-25.931 4.686 2.917 10.853 1.485 13.772-3.203 2.919-4.687 1.484-10.853-3.203-13.772-38.068-23.7-83.719-34.07-128.552-29.203C134.551 6.117 91.62 26.705 59.18 59.143c-78.746 78.747-78.746 206.878 0 285.624 39.374 39.374 91.093 59.06 142.813 59.06 39.403 0 78.798-11.44 112.741-34.292l24.613 24.613c-3.698 3.918-3.639 10.089.195 13.924a9.966 9.966 0 0 0 7.07 2.929c2.468 0 4.93-.917 6.854-2.733l92.563 92.563c7.45 7.45 17.244 11.169 27.065 11.169 9.911 0 19.85-3.791 27.423-11.364 15.074-15.076 15.162-39.519.193-54.487zm-165.344-84.26l26.402-26.402 18.11 18.11-26.402 26.402-18.11-18.11zm151.01 124.607c-7.28 7.279-19.036 7.367-26.207.194l-92.553-92.553 26.402-26.402 92.552 92.553c7.172 7.173 7.085 18.929-.194 26.208z" fill="#715aff"/><path d="M345.044 59.381l-.217-.217c-3.892-3.916-10.223-3.935-14.14-.043-3.916 3.892-3.936 10.223-.043 14.14l.26.261c1.953 1.953 4.511 2.929 7.07 2.929s5.118-.976 7.07-2.929c3.904-3.904 3.904-10.235 0-14.141zM201.993 47.981c-84.902 0-153.975 69.073-153.975 153.975s69.073 153.975 153.975 153.975 153.975-69.073 153.975-153.975S286.895 47.981 201.993 47.981zm0 287.953c-73.876 0-133.978-60.102-133.978-133.978S128.117 67.978 201.993 67.978s133.978 60.102 133.978 133.978-60.102 133.978-133.978 133.978z" fill="#715aff"/><path d="M240.041 188.963c6.228-8.096 9.944-18.22 9.944-29.201v-13.096c0-26.463-21.529-47.992-47.992-47.992s-47.992 21.529-47.992 47.992v13.096c0 10.981 3.715 21.106 9.944 29.201-31.8 5.997-55.937 33.966-55.937 67.484v5.166c0 5.522 4.476 9.998 9.998 9.998h167.972c5.522 0 9.998-4.476 9.998-9.998v-5.166c.002-33.517-24.135-61.486-55.935-67.484zm-66.043-42.297c0-15.436 12.559-27.995 27.995-27.995s27.995 12.559 27.995 27.995v13.096c0 15.436-12.559 27.995-27.995 27.995s-27.995-12.559-27.995-27.995v-13.096zm-45.755 104.948c2.434-24.589 23.236-43.86 48.455-43.86h50.591c25.219 0 46.021 19.271 48.455 43.86H128.243zM442.305 11.987c-5.522 0-9.998 4.476-9.998 9.998v12.428c0 5.521 4.476 9.998 9.998 9.998s9.998-4.476 9.998-9.998V21.986c0-5.523-4.476-9.999-9.998-9.999zM442.305 71.547c-5.522 0-9.998 4.476-9.998 9.998v12.428c0 5.522 4.476 9.998 9.998 9.998s9.998-4.476 9.998-9.998V81.546c0-5.522-4.476-9.999-9.998-9.999zM478.299 47.981h-12.428c-5.522 0-9.998 4.476-9.998 9.998s4.476 9.998 9.998 9.998h12.428c5.522 0 9.998-4.476 9.998-9.998s-4.476-9.998-9.998-9.998zM418.738 47.981H406.31c-5.522 0-9.998 4.476-9.998 9.998s4.476 9.998 9.998 9.998h12.428c5.522 0 9.998-4.476 9.998-9.998s-4.475-9.998-9.998-9.998zM61.937 412.008c-5.522 0-9.998 4.476-9.998 9.998v12.428c0 5.522 4.476 9.998 9.998 9.998s9.998-4.476 9.998-9.998v-12.428c0-5.522-4.476-9.998-9.998-9.998zM61.937 471.568c-5.522 0-9.998 4.476-9.998 9.998v12.428c0 5.522 4.476 9.998 9.998 9.998s9.998-4.476 9.998-9.998v-12.428c0-5.522-4.476-9.998-9.998-9.998zM97.931 448.002H85.503c-5.522 0-9.998 4.476-9.998 9.998s4.476 9.998 9.998 9.998h12.428c5.522 0 9.998-4.476 9.998-9.998s-4.476-9.998-9.998-9.998zM38.371 448.002H25.943c-5.522 0-9.998 4.476-9.998 9.998s4.476 9.998 9.998 9.998h12.428c5.522 0 9.998-4.476 9.998-9.998s-4.476-9.998-9.998-9.998z" fill="#715aff"/></svg>