<svg xmlns="http://www.w3.org/2000/svg" viewBox="0 0 480 480" width="512" height="512"><path d="M480 360V136c-.026-22.08-17.92-39.974-40-40h-88V0h-16v184a8 8 0 0 0 8 8h27.12L240 270.672 108.88 192H136a8 8 0 0 0 8-8V0h-16v96H40c-22.08.026-39.974 17.92-40 40v224c.026 22.08 17.92 39.974 40 40h131.056l-16 32H8a8 8 0 0 0-8 8c0 40 42.152 40 56 40h368c13.848 0 56 0 56-40a8 8 0 0 0-8-8H324.944l-16-32H440c22.08-.026 39.974-17.92 40-40zM128 176H80a8 8 0 0 0-4.119 14.857l160 96a8.001 8.001 0 0 0 8.24 0l160-96a8.002 8.002 0 0 0-4.12-14.857h-48v-32h80v192H48V144h80v32zm335.032 272c-2.792 9.848-12.448 16-39.032 16H56c-26.584 0-36.24-6.152-39.032-16h446.064zm-290.088-16l16-32h102.112l16 32H172.944zM40 384c-13.255 0-24-10.745-24-24V136c0-13.255 10.745-24 24-24h88v16H40a8 8 0 0 0-8 8v208a8 8 0 0 0 8 8h400a8 8 0 0 0 8-8V136a8 8 0 0 0-8-8h-88v-16h88c13.255 0 24 10.745 24 24v224c0 13.255-10.745 24-24 24H40z" fill="#715aff"/><path d="M274.904 120.368A55.529 55.529 0 0 0 296 80c0-52.896-30.456-64-56-64s-56 11.104-56 64a55.53 55.53 0 0 0 21.096 40.392C183.89 123.005 167.969 141.033 168 162.4V192h16v-29.6c0-14.58 11.82-26.4 26.4-26.4h59.2c14.58 0 26.4 11.82 26.4 26.4V192h16v-29.6c.043-21.376-15.881-39.418-37.096-42.032zm-74.488-48.84C202.584 44.72 215.2 32 240 32c22.704 0 35.2 10.736 38.776 33.136l-26.656-16a8 8 0 0 0-11.704 4.328c-4.048 12.144-25.904 16.736-40 18.064zM240 120a50.402 50.402 0 0 1-38.888-32.416v-.024c13.696-1.128 38.4-5.272 49.92-20.432l28.592 17.152C276.416 103.896 252.28 120 240 120zM400 288v-16h-16v16h-16v16h16v16h16v-16h16v-16z" fill="#715aff"/></svg>